# xmcd
#
# Track frame offsets:
#	150
#	12180
#	25857
#	38668
#	54143
#	64892
#	74179
#	87243
#	98467
#	111641
#	126601
#	143261
#	157963
#	175156
#	184405
#	197210
#	209647
#	220802
#	235031
#	245146
#	257301
#	268450
#	279309
#	289626
#	300298
#	311419
#	323011
#	332492
#
# Disc length: 4626 seconds
# Revision: 0
# Processed by: cddbd v1.5.2PL0 Copyright (c) Steve Scherf et al.
# Submitted via: dBpowerAMP V12.0
#
DISCID=9712101c
DTITLE=Willie Nelson - It Will Come to Pass
DYEAR=2014
DGENRE=Country
TTITLE0=Jimmy's Road [rel. 1969 single]
TTITLE1=It Will Come to Pass [rel. 1969 LP "My Own Peculiar Way"]
TTITLE2=Truth Number One [rel. 1970 single]
TTITLE3=When I Don't Have You [rec. 8/9/67, prev. unreleased]
TTITLE4=Suffer in Silence [rel. 1967 LP "The Party's Over"]
TTITLE5=Natural to Be Gone [rel. 1969 LP "My Own Peculiar Way"]
TTITLE6=I Let My Mind Wander [rel. 1969 LP "My Own Peculiar Way"]
TTITLE7=Good Times [rel. 1969 LP "Good Times"]
TTITLE8=Pages [rel. 1969 LP "Good Times"]
TTITLE9=Little Things [rel. 1969 LP "Good Times"]
TTITLE10=Where's the Snow - Let Me Be a Man [rel. 1971 LP "Yesterday's Wine"]
TTITLE11=These Are Difficult Times - Remember the Good Times [rel. 1971 LP "Yesterday's Wine"]
TTITLE12=Me and Paul [rel. 1971 LP "Yesterday's Wine"]
TTITLE13=Blackjack County Chain [rel. 1967 single]
TTITLE14=I Just Can't Let You Say Goodbye [rel. 1965 single]
TTITLE15=Johnny One Time [rel. 1968 single]
TTITLE16=She's Still Gone [rel. 1969 LP "Good Times"]
TTITLE17=I Walk Alone [rel. 1969 LP "My Own Peculiar Way"]
TTITLE18=Some Other World [rel. 1967 LP "Make Way for...]
TTITLE19=Born to Lose [rel. 1967 LP "Make Way for...]
TTITLE20=There Goes a Man [rel. 1967 LP "The Party's Over"]
TTITLE21=The Ghost [rel. 1967 LP "The Party's Over"]
TTITLE22=To Make a Long Story Short (She's Gone) [rel. 1967 LP "The Party's Over"]
TTITLE23=Healing Hands of Time [rel. 1965 LP "Country Willie"]
TTITLE24=Darkness on the Face of the Earth [rel. 1965 LP "Country Willie"]
TTITLE25=One in a Row [rel. 1967 LP "Make Way for...]
TTITLE26=The End of Understanding [rel. 1967 LP "The Party's Over"]
TTITLE27=Sweet Memories [rel. 1969 LP "Good Times"]
EXTD=
EXTT0=
EXTT1=
EXTT2=
EXTT3=
EXTT4=
EXTT5=
EXTT6=
EXTT7=
EXTT8=
EXTT9=
EXTT10=
EXTT11=
EXTT12=
EXTT13=
EXTT14=
EXTT15=
EXTT16=
EXTT17=
EXTT18=
EXTT19=
EXTT20=
EXTT21=
EXTT22=
EXTT23=
EXTT24=
EXTT25=
EXTT26=
EXTT27=
PLAYORDER=
